<svg xmlns="http://www.w3.org/2000/svg" width="780" height="838" viewBox="0 0 780 838" version="1.1"><path d="M 382.877 20.123 C 369.559 30.822, 345.376 45.962, 330.750 52.758 L 324 55.895 324 60.716 C 324 63.367, 325.121 70.478, 326.491 76.518 C 330.918 96.036, 331.246 95.385, 314.461 100.337 C 256.870 117.327, 191.500 172.746, 164.465 227.500 C 128.787 299.759, 133.953 392.025, 177.399 458.500 C 205.721 501.836, 258.627 543.384, 305.275 558.925 C 319.415 563.636, 319.789 564.487, 315.501 582.186 C 311.341 599.359, 309.421 597.713, 335.145 599.034 C 362.888 600.459, 359.904 596.918, 363.140 632.263 C 364.614 648.366, 366.925 648.221, 339.819 633.723 C 252.035 586.770, 204.974 549.771, 163.695 495.259 C 67.338 368.009, 85.097 234.198, 213 123.764 C 234.742 104.992, 234.667 103.873, 212.041 109.559 C 110.139 135.170, 38.463 217.919, 19.001 332.424 C -3.183 462.948, 77.786 612.592, 213.874 692.578 C 223.306 698.122, 229.221 704.156, 231.270 710.324 C 233.906 718.262, 236.150 716.989, 261 693.454 C 278.715 676.677, 287.385 669.523, 297.935 662.980 L 306.023 657.964 315.262 664.154 C 330.925 674.649, 347.391 686.178, 349.711 688.277 C 352.765 691.038, 351.984 692.143, 339.263 703.039 C 313.054 725.490, 308.858 729.378, 303.067 736.577 C 282.832 761.731, 290.623 784.971, 319.300 784.994 C 330.385 785.004, 333.416 782.872, 342.754 768.500 C 346.597 762.584, 352.819 754.927, 357.990 749.750 C 373.817 733.904, 377.458 740.437, 362.850 758.470 C 333.229 795.033, 383.820 841.515, 416.786 808.026 C 431.330 793.250, 431.601 775.970, 417.578 757.500 C 411.168 749.057, 410 746.910, 410 743.566 C 410 734.605, 425.868 749.290, 441.223 772.463 C 451.449 787.894, 469.510 790.098, 482.357 777.483 C 498.744 761.393, 491.697 745.849, 452.882 712.466 C 432.026 694.528, 428.655 691.121, 430.072 689.413 C 430.659 688.706, 441.041 681.316, 453.142 672.992 L 475.144 657.858 482.035 661.952 C 491.830 667.771, 501.058 675.358, 520.523 693.600 C 544.940 716.481, 546.929 717.777, 549.146 712.250 C 553.075 702.455, 555.873 699.765, 573.512 688.823 C 660.606 634.799, 723.719 555.962, 752.815 464.849 C 802.830 308.231, 705.681 131.137, 556.250 106.524 C 547.729 105.121, 550.304 108.484, 571.500 126.448 C 654.376 196.686, 688.599 278.271, 674.504 372 C 661.836 456.236, 588.780 548.821, 488.500 607.724 C 467.194 620.239, 420.825 645, 418.695 645 C 417.216 645, 419.673 608.756, 421.553 602.832 C 422.335 600.370, 423.498 600.193, 446.302 599.048 C 471.150 597.801, 470.002 598.724, 466.055 583.167 C 461.173 563.920, 460.979 564.315, 478.486 557.960 C 610.741 509.951, 674.863 366.463, 621.629 237.646 C 598.393 181.420, 529.902 119.704, 470.500 101.468 C 453.923 96.379, 453.151 96.050, 452.427 93.771 C 452.076 92.664, 453.259 84.451, 455.056 75.521 C 458.967 56.086, 459.278 57.164, 448.152 51.576 C 432.526 43.728, 411.049 30.140, 398.803 20.352 C 390.615 13.808, 390.737 13.809, 382.877 20.123 M 329.723 164.487 C 173.505 220.082, 164.045 413.813, 313.840 489.732 C 335.376 500.647, 334.660 501.050, 339.953 475 C 353.029 410.637, 357.976 316.778, 352.180 243 C 345.822 162.064, 344.963 159.063, 329.723 164.487 M 438.720 164.138 C 433.355 172.743, 426.995 257.397, 427.010 320 C 427.027 389.999, 430.285 424.681, 441.616 475.500 C 447.333 501.142, 445.886 499.900, 461.500 492.567 C 615.210 420.383, 612.274 229.328, 456.490 166.524 C 444.255 161.592, 440.613 161.102, 438.720 164.138" stroke="none" fill="#10345c" fill-rule="evenodd"/></svg>